<!DOCTYPE svg PUBLIC "-//W3C//DTD SVG 1.1//EN" "http://www.w3.org/Graphics/SVG/1.1/DTD/svg11.dtd">

<!-- Uploaded to: SVG Repo, www.svgrepo.com, Transformed by: SVG Repo Mixer Tools -->
<svg fill="#000000" version="1.1" id="Capa_1" xmlns="http://www.w3.org/2000/svg" xmlns:xlink="http://www.w3.org/1999/xlink" width="800px" height="800px" viewBox="0 0 80 80" xml:space="preserve">

<g id="SVGRepo_bgCarrier" stroke-width="0"/>

<g id="SVGRepo_tracerCarrier" stroke-linecap="round" stroke-linejoin="round"/>

<g id="SVGRepo_iconCarrier"> <g> <g> <path d="M48.3,48.236c-1.956,0-3.096,1.861-3.096,4.351c0,2.509,1.178,4.274,3.114,4.274c1.957,0,3.078-1.861,3.078-4.352 C51.398,50.212,50.295,48.236,48.3,48.236z"/> <path d="M40,0C17.908,0,0,17.909,0,40c0,22.092,17.908,40,40,40c22.091,0,40-17.908,40-40C80,17.909,62.09,0,40,0z M25.463,59.141 c-1.462,0-2.906-0.381-3.628-0.779l0.588-2.393c0.779,0.396,1.977,0.797,3.211,0.797c1.33,0,2.033-0.551,2.033-1.387 c0-0.798-0.608-1.254-2.146-1.805c-2.128-0.741-3.516-1.92-3.516-3.78c0-2.187,1.824-3.856,4.845-3.856 c1.444,0,2.508,0.305,3.268,0.646l-0.646,2.337c-0.514-0.247-1.425-0.608-2.679-0.608s-1.862,0.57-1.862,1.235 c0,0.815,0.723,1.179,2.375,1.806c2.261,0.836,3.324,2.014,3.324,3.817C30.63,57.316,28.978,59.141,25.463,59.141z M31.793,34.483 c-0.293,0.293-0.677,0.439-1.061,0.439s-0.768-0.146-1.061-0.439l-2.348-2.348v8.123c0,0.828-0.672,1.5-1.5,1.5 c-0.828,0-1.5-0.672-1.5-1.5v-8.122l-2.188,2.188c-0.293,0.293-0.677,0.439-1.061,0.439c-0.384,0-0.768-0.146-1.061-0.439 c-0.586-0.586-0.586-1.535,0-2.121l4.748-4.749c0.139-0.139,0.306-0.25,0.49-0.326c0.008-0.003,0.016-0.004,0.023-0.007 c0.17-0.066,0.354-0.106,0.547-0.106c0.193,0,0.377,0.04,0.547,0.106c0.008,0.003,0.016,0.004,0.023,0.007 c0.185,0.076,0.352,0.188,0.49,0.326l4.908,4.908C32.378,32.948,32.378,33.897,31.793,34.483z M40.757,58.951h-8.168V46.146h7.902 v2.375h-4.996v2.66h4.711v2.354h-4.711v3.038h5.262V58.951z M39.086,23.95v16.309c0,0.828-0.672,1.5-1.5,1.5s-1.5-0.672-1.5-1.5 V23.95l-2.188,2.188c-0.293,0.293-0.677,0.439-1.061,0.439s-0.768-0.146-1.061-0.439c-0.586-0.586-0.586-1.535,0-2.121 l4.749-4.749c0.139-0.139,0.306-0.25,0.49-0.326c0.008-0.003,0.016-0.004,0.023-0.007c0.17-0.066,0.354-0.106,0.547-0.106 s0.377,0.04,0.547,0.106c0.008,0.003,0.016,0.004,0.023,0.007c0.185,0.076,0.352,0.188,0.49,0.326l4.908,4.908 c0.586,0.586,0.586,1.535,0,2.121c-0.293,0.293-0.677,0.439-1.061,0.439c-0.385,0-0.768-0.146-1.061-0.439L39.086,23.95z M48.168,59.16c-3.799,0-6.021-2.868-6.021-6.516c0-3.838,2.451-6.707,6.23-6.707c3.934,0,6.08,2.944,6.08,6.479 C54.457,56.613,51.911,59.16,48.168,59.16z M56.044,20.425c-0.293,0.293-0.677,0.439-1.062,0.439 c-0.383,0-0.768-0.146-1.061-0.439l-2.35-2.348v22.181c0,0.828-0.672,1.5-1.5,1.5c-0.827,0-1.5-0.672-1.5-1.5v-22.18l-2.188,2.188 c-0.293,0.293-0.677,0.439-1.061,0.439c-0.385,0-0.768-0.146-1.062-0.439c-0.586-0.586-0.586-1.535,0-2.121l4.749-4.749 c0.139-0.139,0.307-0.25,0.49-0.326c0.008-0.003,0.016-0.004,0.023-0.007c0.17-0.066,0.354-0.106,0.547-0.106 s0.377,0.04,0.547,0.106c0.008,0.003,0.016,0.004,0.023,0.007c0.185,0.076,0.352,0.188,0.489,0.326l4.909,4.908 C56.629,18.89,56.629,19.839,56.044,20.425z"/> </g> </g> </g>

</svg>